<?xml version="1.0"?>
<!DOCTYPE svg PUBLIC "-//W3C//DTD SVG 1.1//EN" 
    "http://www.w3.org/Graphics/SVG/1.1/DTD/svg11.dtd">
<svg xmlns="http://www.w3.org/2000/svg" version="1.1" width="1920" height="1080">
<path d="M914,521L775,541L933,693Z" fill="rgb(131,191,247)" stroke="rgb(131,191,247)" stroke-width="1.51"></path><path d="M775,541L717,705L933,693Z" fill="rgb(123,183,246)" stroke="rgb(123,183,246)" stroke-width="1.51"></path><path d="M914,521L773,329L775,541Z" fill="rgb(134,187,248)" stroke="rgb(134,187,248)" stroke-width="1.51"></path><path d="M775,541L527,548L717,705Z" fill="rgb(128,181,246)" stroke="rgb(128,181,246)" stroke-width="1.51"></path><path d="M933,693L1167,538L914,521Z" fill="rgb(129,192,248)" stroke="rgb(129,192,248)" stroke-width="1.51"></path><path d="M914,521L967,311L773,329Z" fill="rgb(134,183,247)" stroke="rgb(134,183,247)" stroke-width="1.51"></path><path d="M955,968L1128,742L933,693Z" fill="rgb(113,183,246)" stroke="rgb(113,183,246)" stroke-width="1.51"></path><path d="M717,705L759,916L933,693Z" fill="rgb(114,177,245)" stroke="rgb(114,177,245)" stroke-width="1.51"></path><path d="M1128,742L1167,538L933,693Z" fill="rgb(116,182,245)" stroke="rgb(116,182,245)" stroke-width="1.51"></path><path d="M1173,367L967,311L914,521Z" fill="rgb(131,185,247)" stroke="rgb(131,185,247)" stroke-width="1.51"></path><path d="M558,379L527,548L775,541Z" fill="rgb(131,180,247)" stroke="rgb(131,180,247)" stroke-width="1.51"></path><path d="M717,705L515,713L759,916Z" fill="rgb(113,172,244)" stroke="rgb(113,172,244)" stroke-width="1.51"></path><path d="M527,548L515,713L717,705Z" fill="rgb(117,175,245)" stroke="rgb(117,175,245)" stroke-width="1.51"></path><path d="M759,916L955,968L933,693Z" fill="rgb(116,183,247)" stroke="rgb(116,183,247)" stroke-width="1.51"></path><path d="M773,329L558,379L775,541Z" fill="rgb(132,178,247)" stroke="rgb(132,178,247)" stroke-width="1.51"></path><path d="M1167,538L1173,367L914,521Z" fill="rgb(128,187,247)" stroke="rgb(128,187,247)" stroke-width="1.51"></path><path d="M1128,742L1311,755L1167,538Z" fill="rgb(104,174,242)" stroke="rgb(104,174,242)" stroke-width="1.51"></path><path d="M1167,538L1349,526L1173,367Z" fill="rgb(118,180,245)" stroke="rgb(118,180,245)" stroke-width="1.51"></path><path d="M955,968L1155,970L1128,742Z" fill="rgb(108,182,247)" stroke="rgb(108,182,247)" stroke-width="1.51"></path><path d="M1155,970L1311,755L1128,742Z" fill="rgb(99,174,244)" stroke="rgb(99,174,244)" stroke-width="1.51"></path><path d="M515,713L558,987L759,916Z" fill="rgb(111,174,246)" stroke="rgb(111,174,246)" stroke-width="1.51"></path><path d="M759,916L791,1102L955,968Z" fill="rgb(118,188,249)" stroke="rgb(118,188,249)" stroke-width="1.51"></path><path d="M955,968L981,1141L1155,970Z" fill="rgb(114,191,249)" stroke="rgb(114,191,249)" stroke-width="1.51"></path><path d="M527,548L380,560L515,713Z" fill="rgb(114,180,247)" stroke="rgb(114,180,247)" stroke-width="1.51"></path><path d="M515,713L367,952L558,987Z" fill="rgb(100,176,247)" stroke="rgb(100,176,247)" stroke-width="1.51"></path><path d="M387,328L380,560L527,548Z" fill="rgb(118,181,248)" stroke="rgb(118,181,248)" stroke-width="1.51"></path><path d="M967,311L927,140L773,329Z" fill="rgb(121,183,248)" stroke="rgb(121,183,248)" stroke-width="1.51"></path><path d="M773,329L594,145L558,379Z" fill="rgb(121,172,246)" stroke="rgb(121,172,246)" stroke-width="1.51"></path><path d="M1205,151L927,140L967,311Z" fill="rgb(109,183,248)" stroke="rgb(109,183,248)" stroke-width="1.51"></path><path d="M380,560L382,718L515,713Z" fill="rgb(103,175,245)" stroke="rgb(103,175,245)" stroke-width="1.51"></path><path d="M558,987L791,1102L759,916Z" fill="rgb(116,182,248)" stroke="rgb(116,182,248)" stroke-width="1.51"></path><path d="M1311,755L1349,526L1167,538Z" fill="rgb(108,176,243)" stroke="rgb(108,176,243)" stroke-width="1.51"></path><path d="M1173,367L1205,151L967,311Z" fill="rgb(113,178,246)" stroke="rgb(113,178,246)" stroke-width="1.51"></path><path d="M927,140L763,102L773,329Z" fill="rgb(111,181,248)" stroke="rgb(111,181,248)" stroke-width="1.51"></path><path d="M558,379L387,328L527,548Z" fill="rgb(121,176,247)" stroke="rgb(121,176,247)" stroke-width="1.51"></path><path d="M763,102L594,145L773,329Z" fill="rgb(110,177,248)" stroke="rgb(110,177,248)" stroke-width="1.51"></path><path d="M791,1102L981,1141L955,968Z" fill="rgb(119,195,250)" stroke="rgb(119,195,250)" stroke-width="1.51"></path><path d="M594,145L387,328L558,379Z" fill="rgb(112,173,247)" stroke="rgb(112,173,247)" stroke-width="1.51"></path><path d="M927,140L950,-35L763,102Z" fill="rgb(126,190,249)" stroke="rgb(126,190,249)" stroke-width="1.51"></path><path d="M1315,143L1205,151L1173,367Z" fill="rgb(96,173,244)" stroke="rgb(96,173,244)" stroke-width="1.51"></path><path d="M1349,526L1386,376L1173,367Z" fill="rgb(114,174,244)" stroke="rgb(114,174,244)" stroke-width="1.51"></path><path d="M1518,539L1386,376L1349,526Z" fill="rgb(115,180,246)" stroke="rgb(115,180,246)" stroke-width="1.51"></path><path d="M558,987L520,1105L791,1102Z" fill="rgb(115,183,249)" stroke="rgb(115,183,249)" stroke-width="1.51"></path><path d="M382,718L367,952L515,713Z" fill="rgb(95,173,245)" stroke="rgb(95,173,245)" stroke-width="1.51"></path><path d="M317,1095L367,952L160,910Z" fill="rgb(92,183,249)" stroke="rgb(92,183,249)" stroke-width="1.51"></path><path d="M367,952L382,718L160,910Z" fill="rgb(88,177,247)" stroke="rgb(88,177,247)" stroke-width="1.51"></path><path d="M367,952L520,1105L558,987Z" fill="rgb(103,182,249)" stroke="rgb(103,182,249)" stroke-width="1.51"></path><path d="M791,1102L926,1309L981,1141Z" fill="rgb(119,195,250)" stroke="rgb(119,195,250)" stroke-width="1.51"></path><path d="M981,1141L1181,1115L1155,970Z" fill="rgb(110,190,248)" stroke="rgb(110,190,248)" stroke-width="1.51"></path><path d="M1155,970L1399,974L1311,755Z" fill="rgb(93,172,244)" stroke="rgb(93,172,244)" stroke-width="1.51"></path><path d="M1562,700L1518,539L1349,526Z" fill="rgb(110,182,246)" stroke="rgb(110,182,246)" stroke-width="1.51"></path><path d="M1181,1115L1399,974L1155,970Z" fill="rgb(98,180,246)" stroke="rgb(98,180,246)" stroke-width="1.51"></path><path d="M1205,151L950,-35L927,140Z" fill="rgb(120,189,248)" stroke="rgb(120,189,248)" stroke-width="1.51"></path><path d="M763,102L783,-56L594,145Z" fill="rgb(126,184,248)" stroke="rgb(126,184,248)" stroke-width="1.51"></path><path d="M1386,376L1315,143L1173,367Z" fill="rgb(103,170,243)" stroke="rgb(103,170,243)" stroke-width="1.51"></path><path d="M1205,151L1174,-97L950,-35Z" fill="rgb(126,190,247)" stroke="rgb(126,190,247)" stroke-width="1.51"></path><path d="M1562,700L1349,526L1311,755Z" fill="rgb(100,174,243)" stroke="rgb(100,174,243)" stroke-width="1.51"></path><path d="M1386,376L1553,315L1315,143Z" fill="rgb(101,173,245)" stroke="rgb(101,173,245)" stroke-width="1.51"></path><path d="M950,-35L783,-56L763,102Z" fill="rgb(135,192,249)" stroke="rgb(135,192,249)" stroke-width="1.51"></path><path d="M594,145L396,95L387,328Z" fill="rgb(94,175,247)" stroke="rgb(94,175,247)" stroke-width="1.51"></path><path d="M524,-83L396,95L594,145Z" fill="rgb(117,182,248)" stroke="rgb(117,182,248)" stroke-width="1.51"></path><path d="M1181,1115L1349,1177L1399,974Z" fill="rgb(96,182,247)" stroke="rgb(96,182,247)" stroke-width="1.51"></path><path d="M981,1141L1144,1358L1181,1115Z" fill="rgb(110,190,248)" stroke="rgb(110,190,248)" stroke-width="1.51"></path><path d="M737,1354L926,1309L791,1102Z" fill="rgb(119,191,250)" stroke="rgb(119,191,250)" stroke-width="1.51"></path><path d="M1399,974L1562,700L1311,755Z" fill="rgb(93,172,244)" stroke="rgb(93,172,244)" stroke-width="1.51"></path><path d="M520,1105L550,1290L791,1102Z" fill="rgb(115,184,249)" stroke="rgb(115,184,249)" stroke-width="1.51"></path><path d="M367,952L317,1095L520,1105Z" fill="rgb(97,184,249)" stroke="rgb(97,184,249)" stroke-width="1.51"></path><path d="M135,540L382,718L380,560Z" fill="rgb(104,181,247)" stroke="rgb(104,181,247)" stroke-width="1.51"></path><path d="M135,540L380,560L387,328Z" fill="rgb(112,182,248)" stroke="rgb(112,182,248)" stroke-width="1.51"></path><path d="M126,295L135,540L387,328Z" fill="rgb(117,179,247)" stroke="rgb(117,179,247)" stroke-width="1.51"></path><path d="M317,1095L550,1290L520,1105Z" fill="rgb(103,185,250)" stroke="rgb(103,185,250)" stroke-width="1.51"></path><path d="M135,540L125,744L382,718Z" fill="rgb(104,179,245)" stroke="rgb(104,179,245)" stroke-width="1.51"></path><path d="M1399,974L1563,975L1562,700Z" fill="rgb(93,176,247)" stroke="rgb(93,176,247)" stroke-width="1.51"></path><path d="M1144,1358L1349,1177L1181,1115Z" fill="rgb(101,184,247)" stroke="rgb(101,184,247)" stroke-width="1.51"></path><path d="M550,1290L737,1354L791,1102Z" fill="rgb(117,186,250)" stroke="rgb(117,186,250)" stroke-width="1.51"></path><path d="M125,744L160,910L382,718Z" fill="rgb(96,177,246)" stroke="rgb(96,177,246)" stroke-width="1.51"></path><path d="M1769,579L1553,315L1518,539Z" fill="rgb(116,184,248)" stroke="rgb(116,184,248)" stroke-width="1.51"></path><path d="M1518,539L1553,315L1386,376Z" fill="rgb(114,176,246)" stroke="rgb(114,176,246)" stroke-width="1.51"></path><path d="M783,-56L524,-83L594,145Z" fill="rgb(133,184,248)" stroke="rgb(133,184,248)" stroke-width="1.51"></path><path d="M939,-266L762,-248L783,-56Z" fill="rgb(136,192,249)" stroke="rgb(136,192,249)" stroke-width="1.51"></path><path d="M783,-56L762,-248L524,-83Z" fill="rgb(134,186,248)" stroke="rgb(134,186,248)" stroke-width="1.51"></path><path d="M1315,143L1174,-97L1205,151Z" fill="rgb(109,181,245)" stroke="rgb(109,181,245)" stroke-width="1.51"></path><path d="M1385,-42L1174,-97L1315,143Z" fill="rgb(116,182,245)" stroke="rgb(116,182,245)" stroke-width="1.51"></path><path d="M1523,1150L1563,975L1399,974Z" fill="rgb(96,182,248)" stroke="rgb(96,182,248)" stroke-width="1.51"></path><path d="M926,1309L1144,1358L981,1141Z" fill="rgb(116,194,249)" stroke="rgb(116,194,249)" stroke-width="1.51"></path><path d="M737,1354L1144,1358L926,1309Z" fill="rgb(120,196,251)" stroke="rgb(120,196,251)" stroke-width="1.51"></path><path d="M-47,710L9,916L125,744Z" fill="rgb(114,183,246)" stroke="rgb(114,183,246)" stroke-width="1.51"></path><path d="M160,95L126,295L387,328Z" fill="rgb(99,178,248)" stroke="rgb(99,178,248)" stroke-width="1.51"></path><path d="M160,95L387,328L396,95Z" fill="rgb(80,176,248)" stroke="rgb(80,176,248)" stroke-width="1.51"></path><path d="M524,-83L361,-58L396,95Z" fill="rgb(119,186,248)" stroke="rgb(119,186,248)" stroke-width="1.51"></path><path d="M1553,315L1534,120L1315,143Z" fill="rgb(88,175,246)" stroke="rgb(88,175,246)" stroke-width="1.51"></path><path d="M1534,120L1385,-42L1315,143Z" fill="rgb(104,180,246)" stroke="rgb(104,180,246)" stroke-width="1.51"></path><path d="M1349,1177L1523,1150L1399,974Z" fill="rgb(96,184,248)" stroke="rgb(96,184,248)" stroke-width="1.51"></path><path d="M1386,1335L1523,1150L1349,1177Z" fill="rgb(96,184,248)" stroke="rgb(96,184,248)" stroke-width="1.51"></path><path d="M939,-266L950,-35L1174,-97Z" fill="rgb(133,195,248)" stroke="rgb(133,195,248)" stroke-width="1.51"></path><path d="M939,-266L783,-56L950,-35Z" fill="rgb(137,195,249)" stroke="rgb(137,195,249)" stroke-width="1.51"></path><path d="M524,-83L391,-308L361,-58Z" fill="rgb(119,186,248)" stroke="rgb(119,186,248)" stroke-width="1.51"></path><path d="M361,-58L160,95L396,95Z" fill="rgb(105,185,249)" stroke="rgb(105,185,249)" stroke-width="1.51"></path><path d="M1562,700L1769,579L1518,539Z" fill="rgb(108,182,247)" stroke="rgb(108,182,247)" stroke-width="1.51"></path><path d="M1553,315L1769,171L1534,120Z" fill="rgb(90,177,248)" stroke="rgb(90,177,248)" stroke-width="1.51"></path><path d="M1563,975L1720,731L1562,700Z" fill="rgb(93,175,246)" stroke="rgb(93,175,246)" stroke-width="1.51"></path><path d="M1756,909L1720,731L1563,975Z" fill="rgb(94,179,248)" stroke="rgb(94,179,248)" stroke-width="1.51"></path><path d="M1184,-309L939,-266L1174,-97Z" fill="rgb(128,191,247)" stroke="rgb(128,191,247)" stroke-width="1.51"></path><path d="M1144,1358L1386,1335L1349,1177Z" fill="rgb(96,181,246)" stroke="rgb(96,181,246)" stroke-width="1.51"></path><path d="M125,744L9,916L160,910Z" fill="rgb(108,183,248)" stroke="rgb(108,183,248)" stroke-width="1.51"></path><path d="M160,910L156,1183L317,1095Z" fill="rgb(100,188,250)" stroke="rgb(100,188,250)" stroke-width="1.51"></path><path d="M317,1095L319,1376L550,1290Z" fill="rgb(97,185,250)" stroke="rgb(97,185,250)" stroke-width="1.51"></path><path d="M-47,710L125,744L135,540Z" fill="rgb(117,184,246)" stroke="rgb(117,184,246)" stroke-width="1.51"></path><path d="M-45,557L135,540L-40,354Z" fill="rgb(135,194,249)" stroke="rgb(135,194,249)" stroke-width="1.51"></path><path d="M550,1290L319,1376L737,1354Z" fill="rgb(109,185,250)" stroke="rgb(109,185,250)" stroke-width="1.51"></path><path d="M9,916L156,1183L160,910Z" fill="rgb(109,189,250)" stroke="rgb(109,189,250)" stroke-width="1.51"></path><path d="M-40,354L135,540L126,295Z" fill="rgb(129,185,248)" stroke="rgb(129,185,248)" stroke-width="1.51"></path><path d="M-45,557L-47,710L135,540Z" fill="rgb(129,192,248)" stroke="rgb(129,192,248)" stroke-width="1.51"></path><path d="M1720,731L1769,579L1562,700Z" fill="rgb(101,179,246)" stroke="rgb(101,179,246)" stroke-width="1.51"></path><path d="M156,1183L319,1376L317,1095Z" fill="rgb(96,188,250)" stroke="rgb(96,188,250)" stroke-width="1.51"></path><path d="M737,1354L319,1376L1144,1358Z" fill="rgb(118,188,250)" stroke="rgb(118,188,250)" stroke-width="1.51"></path><path d="M-15,115L-40,354L126,295Z" fill="rgb(119,185,248)" stroke="rgb(119,185,248)" stroke-width="1.51"></path><path d="M1737,1116L1756,909L1563,975Z" fill="rgb(96,185,250)" stroke="rgb(96,185,250)" stroke-width="1.51"></path><path d="M1963,704L1941,551L1769,579Z" fill="rgb(110,190,248)" stroke="rgb(110,190,248)" stroke-width="1.51"></path><path d="M1737,1116L1563,975L1523,1150Z" fill="rgb(97,187,250)" stroke="rgb(97,187,250)" stroke-width="1.51"></path><path d="M939,-266L554,-283L762,-248Z" fill="rgb(135,189,248)" stroke="rgb(135,189,248)" stroke-width="1.51"></path><path d="M762,-248L554,-283L524,-83Z" fill="rgb(132,184,248)" stroke="rgb(132,184,248)" stroke-width="1.51"></path><path d="M361,-58L166,-100L160,95Z" fill="rgb(119,190,249)" stroke="rgb(119,190,249)" stroke-width="1.51"></path><path d="M1534,120L1528,-97L1385,-42Z" fill="rgb(117,186,247)" stroke="rgb(117,186,247)" stroke-width="1.51"></path><path d="M1346,-245L1184,-309L1174,-97Z" fill="rgb(119,184,245)" stroke="rgb(119,184,245)" stroke-width="1.51"></path><path d="M1734,-67L1528,-97L1534,120Z" fill="rgb(117,188,249)" stroke="rgb(117,188,249)" stroke-width="1.51"></path><path d="M1346,-245L1174,-97L1385,-42Z" fill="rgb(116,183,245)" stroke="rgb(116,183,245)" stroke-width="1.51"></path><path d="M939,-266L1184,-309L554,-283Z" fill="rgb(137,195,249)" stroke="rgb(137,195,249)" stroke-width="1.51"></path><path d="M156,1183L144,1296L319,1376Z" fill="rgb(101,190,250)" stroke="rgb(101,190,250)" stroke-width="1.51"></path><path d="M-53,1320L144,1296L156,1183Z" fill="rgb(113,194,250)" stroke="rgb(113,194,250)" stroke-width="1.51"></path><path d="M1528,-97L1346,-245L1385,-42Z" fill="rgb(116,185,246)" stroke="rgb(116,185,246)" stroke-width="1.51"></path><path d="M1941,551L1808,329L1769,579Z" fill="rgb(118,191,249)" stroke="rgb(118,191,249)" stroke-width="1.51"></path><path d="M1769,579L1808,329L1553,315Z" fill="rgb(116,181,248)" stroke="rgb(116,181,248)" stroke-width="1.51"></path><path d="M160,95L-15,115L126,295Z" fill="rgb(105,184,249)" stroke="rgb(105,184,249)" stroke-width="1.51"></path><path d="M171,-253L166,-100L361,-58Z" fill="rgb(118,190,249)" stroke="rgb(118,190,249)" stroke-width="1.51"></path><path d="M1386,1335L1569,1310L1523,1150Z" fill="rgb(97,185,249)" stroke="rgb(97,185,249)" stroke-width="1.51"></path><path d="M166,-100L-15,115L160,95Z" fill="rgb(124,192,249)" stroke="rgb(124,192,249)" stroke-width="1.51"></path><path d="M1569,1310L1737,1116L1523,1150Z" fill="rgb(97,187,250)" stroke="rgb(97,187,250)" stroke-width="1.51"></path><path d="M1808,329L1769,171L1553,315Z" fill="rgb(102,179,248)" stroke="rgb(102,179,248)" stroke-width="1.51"></path><path d="M1184,-309L391,-308L554,-283Z" fill="rgb(135,187,248)" stroke="rgb(135,187,248)" stroke-width="1.51"></path><path d="M554,-283L391,-308L524,-83Z" fill="rgb(124,185,248)" stroke="rgb(124,185,248)" stroke-width="1.51"></path><path d="M9,916L-85,1129L156,1183Z" fill="rgb(118,196,251)" stroke="rgb(118,196,251)" stroke-width="1.51"></path><path d="M-47,710L-202,779L9,916Z" fill="rgb(116,185,247)" stroke="rgb(116,185,247)" stroke-width="1.51"></path><path d="M-209,491L-202,779L-47,710Z" fill="rgb(123,187,246)" stroke="rgb(123,187,246)" stroke-width="1.51"></path><path d="M-209,491L-47,710L-45,557Z" fill="rgb(132,194,248)" stroke="rgb(132,194,248)" stroke-width="1.51"></path><path d="M-209,491L-45,557L-40,354Z" fill="rgb(136,192,249)" stroke="rgb(136,192,249)" stroke-width="1.51"></path><path d="M-249,351L-209,491L-40,354Z" fill="rgb(135,187,248)" stroke="rgb(135,187,248)" stroke-width="1.51"></path><path d="M-236,955L-85,1129L9,916Z" fill="rgb(118,193,250)" stroke="rgb(118,193,250)" stroke-width="1.51"></path><path d="M1963,704L1720,731L1756,909Z" fill="rgb(95,180,247)" stroke="rgb(95,180,247)" stroke-width="1.51"></path><path d="M1963,704L1769,579L1720,731Z" fill="rgb(102,182,246)" stroke="rgb(102,182,246)" stroke-width="1.51"></path><path d="M1808,329L1967,126L1769,171Z" fill="rgb(94,183,250)" stroke="rgb(94,183,250)" stroke-width="1.51"></path><path d="M-15,115L-249,351L-40,354Z" fill="rgb(123,186,248)" stroke="rgb(123,186,248)" stroke-width="1.51"></path><path d="M166,-100L-88,-101L-15,115Z" fill="rgb(136,197,249)" stroke="rgb(136,197,249)" stroke-width="1.51"></path><path d="M391,-308L171,-253L361,-58Z" fill="rgb(112,187,249)" stroke="rgb(112,187,249)" stroke-width="1.51"></path><path d="M1970,933L1963,704L1756,909Z" fill="rgb(97,185,249)" stroke="rgb(97,185,249)" stroke-width="1.51"></path><path d="M1967,126L1734,-67L1769,171Z" fill="rgb(107,190,250)" stroke="rgb(107,190,250)" stroke-width="1.51"></path><path d="M1769,171L1734,-67L1534,120Z" fill="rgb(106,185,249)" stroke="rgb(106,185,249)" stroke-width="1.51"></path><path d="M1528,-97L1608,-235L1346,-245Z" fill="rgb(117,186,247)" stroke="rgb(117,186,247)" stroke-width="1.51"></path><path d="M1734,-67L1608,-235L1528,-97Z" fill="rgb(117,188,249)" stroke="rgb(117,188,249)" stroke-width="1.51"></path><path d="M1346,-245L1608,-235L1184,-309Z" fill="rgb(116,184,246)" stroke="rgb(116,184,246)" stroke-width="1.51"></path><path d="M-209,491L-249,351L-202,779Z" fill="rgb(137,198,249)" stroke="rgb(137,198,249)" stroke-width="1.51"></path><path d="M-284,96L-249,351L-15,115Z" fill="rgb(112,187,249)" stroke="rgb(112,187,249)" stroke-width="1.51"></path><path d="M-202,779L-236,955L9,916Z" fill="rgb(117,187,248)" stroke="rgb(117,187,248)" stroke-width="1.51"></path><path d="M-249,351L-236,955L-202,779Z" fill="rgb(119,184,245)" stroke="rgb(119,184,245)" stroke-width="1.51"></path><path d="M1737,1116L1970,933L1756,909Z" fill="rgb(98,188,251)" stroke="rgb(98,188,251)" stroke-width="1.51"></path><path d="M1569,1310L1771,1305L1737,1116Z" fill="rgb(98,189,251)" stroke="rgb(98,189,251)" stroke-width="1.51"></path><path d="M1911,1331L1771,1305L1569,1310Z" fill="rgb(98,191,251)" stroke="rgb(98,191,251)" stroke-width="1.51"></path><path d="M1911,1331L1569,1310L1386,1335Z" fill="rgb(97,187,250)" stroke="rgb(97,187,250)" stroke-width="1.51"></path><path d="M144,1296L-53,1320L319,1376Z" fill="rgb(108,193,250)" stroke="rgb(108,193,250)" stroke-width="1.51"></path><path d="M-85,1129L-53,1320L156,1183Z" fill="rgb(119,197,251)" stroke="rgb(119,197,251)" stroke-width="1.51"></path><path d="M-281,1341L-53,1320L-85,1129Z" fill="rgb(120,197,251)" stroke="rgb(120,197,251)" stroke-width="1.51"></path><path d="M1990,1137L1970,933L1737,1116Z" fill="rgb(100,194,252)" stroke="rgb(100,194,252)" stroke-width="1.51"></path><path d="M2198,495L1941,551L1963,704Z" fill="rgb(114,193,249)" stroke="rgb(114,193,249)" stroke-width="1.51"></path><path d="M2198,495L1984,315L1941,551Z" fill="rgb(119,191,250)" stroke="rgb(119,191,250)" stroke-width="1.51"></path><path d="M1941,551L1984,315L1808,329Z" fill="rgb(118,186,250)" stroke="rgb(118,186,250)" stroke-width="1.51"></path><path d="M-38,-305L-88,-101L166,-100Z" fill="rgb(136,197,249)" stroke="rgb(136,197,249)" stroke-width="1.51"></path><path d="M1984,315L1967,126L1808,329Z" fill="rgb(102,185,250)" stroke="rgb(102,185,250)" stroke-width="1.51"></path><path d="M1734,-67L1808,-285L1608,-235Z" fill="rgb(118,191,249)" stroke="rgb(118,191,249)" stroke-width="1.51"></path><path d="M-236,955L-269,1092L-85,1129Z" fill="rgb(119,196,251)" stroke="rgb(119,196,251)" stroke-width="1.51"></path><path d="M-249,351L-269,1092L-236,955Z" fill="rgb(116,185,247)" stroke="rgb(116,185,247)" stroke-width="1.51"></path><path d="M1970,933L2122,767L1963,704Z" fill="rgb(96,184,248)" stroke="rgb(96,184,248)" stroke-width="1.51"></path><path d="M1771,1305L1990,1137L1737,1116Z" fill="rgb(99,193,252)" stroke="rgb(99,193,252)" stroke-width="1.51"></path><path d="M-249,351L-284,96L-269,1092Z" fill="rgb(137,196,249)" stroke="rgb(137,196,249)" stroke-width="1.51"></path><path d="M-240,-16L-284,96L-15,115Z" fill="rgb(128,194,249)" stroke="rgb(128,194,249)" stroke-width="1.51"></path><path d="M-88,-101L-240,-16L-15,115Z" fill="rgb(137,198,249)" stroke="rgb(137,198,249)" stroke-width="1.51"></path><path d="M-249,-293L-240,-16L-88,-101Z" fill="rgb(137,198,249)" stroke="rgb(137,198,249)" stroke-width="1.51"></path><path d="M2155,968L2122,767L1970,933Z" fill="rgb(97,186,250)" stroke="rgb(97,186,250)" stroke-width="1.51"></path><path d="M2111,93L2008,-58L1967,126Z" fill="rgb(112,194,250)" stroke="rgb(112,194,250)" stroke-width="1.51"></path><path d="M1144,1358L1911,1331L1386,1335Z" fill="rgb(97,185,249)" stroke="rgb(97,185,249)" stroke-width="1.51"></path><path d="M1771,1305L1911,1331L1990,1137Z" fill="rgb(100,195,252)" stroke="rgb(100,195,252)" stroke-width="1.51"></path><path d="M171,-253L-38,-305L166,-100Z" fill="rgb(129,194,249)" stroke="rgb(129,194,249)" stroke-width="1.51"></path><path d="M391,-308L-38,-305L171,-253Z" fill="rgb(123,192,249)" stroke="rgb(123,192,249)" stroke-width="1.51"></path><path d="M1972,-244L1808,-285L1734,-67Z" fill="rgb(119,195,250)" stroke="rgb(119,195,250)" stroke-width="1.51"></path><path d="M1608,-235L1808,-285L1184,-309Z" fill="rgb(117,187,248)" stroke="rgb(117,187,248)" stroke-width="1.51"></path><path d="M1967,126L2008,-58L1734,-67Z" fill="rgb(120,197,251)" stroke="rgb(120,197,251)" stroke-width="1.51"></path><path d="M2111,93L1967,126L1984,315Z" fill="rgb(90,186,250)" stroke="rgb(90,186,250)" stroke-width="1.51"></path><path d="M2169,1157L2155,968L1990,1137Z" fill="rgb(100,196,252)" stroke="rgb(100,196,252)" stroke-width="1.51"></path><path d="M1990,1137L2155,968L1970,933Z" fill="rgb(99,192,252)" stroke="rgb(99,192,252)" stroke-width="1.51"></path><path d="M2122,767L2198,495L1963,704Z" fill="rgb(105,187,247)" stroke="rgb(105,187,247)" stroke-width="1.51"></path><path d="M2155,968L2198,495L2122,767Z" fill="rgb(96,182,247)" stroke="rgb(96,182,247)" stroke-width="1.51"></path><path d="M-53,1320L-281,1341L319,1376Z" fill="rgb(120,197,251)" stroke="rgb(120,197,251)" stroke-width="1.51"></path><path d="M-269,1092L-281,1341L-85,1129Z" fill="rgb(120,197,251)" stroke="rgb(120,197,251)" stroke-width="1.51"></path><path d="M-284,96L-281,1341L-269,1092Z" fill="rgb(117,186,247)" stroke="rgb(117,186,247)" stroke-width="1.51"></path><path d="M2198,495L2180,317L1984,315Z" fill="rgb(117,185,249)" stroke="rgb(117,185,249)" stroke-width="1.51"></path><path d="M2180,317L2111,93L1984,315Z" fill="rgb(100,185,250)" stroke="rgb(100,185,250)" stroke-width="1.51"></path><path d="M2154,-108L1972,-244L2008,-58Z" fill="rgb(120,197,251)" stroke="rgb(120,197,251)" stroke-width="1.51"></path><path d="M2008,-58L1972,-244L1734,-67Z" fill="rgb(120,197,251)" stroke="rgb(120,197,251)" stroke-width="1.51"></path><path d="M2155,968L2169,1157L2198,495Z" fill="rgb(97,186,250)" stroke="rgb(97,186,250)" stroke-width="1.51"></path><path d="M2196,1354L2169,1157L1990,1137Z" fill="rgb(100,196,252)" stroke="rgb(100,196,252)" stroke-width="1.51"></path><path d="M-38,-305L-249,-293L-88,-101Z" fill="rgb(137,198,249)" stroke="rgb(137,198,249)" stroke-width="1.51"></path><path d="M-240,-16L-249,-293L-284,96Z" fill="rgb(137,198,249)" stroke="rgb(137,198,249)" stroke-width="1.51"></path><path d="M2111,93L2154,-108L2008,-58Z" fill="rgb(120,197,251)" stroke="rgb(120,197,251)" stroke-width="1.51"></path><path d="M2180,317L2154,-108L2111,93Z" fill="rgb(104,191,250)" stroke="rgb(104,191,250)" stroke-width="1.51"></path><path d="M2177,-215L2154,-108L2180,317Z" fill="rgb(120,197,251)" stroke="rgb(120,197,251)" stroke-width="1.51"></path><path d="M1911,1331L2196,1354L1990,1137Z" fill="rgb(100,196,252)" stroke="rgb(100,196,252)" stroke-width="1.51"></path><path d="M2169,1157L2196,1354L2198,495Z" fill="rgb(99,192,251)" stroke="rgb(99,192,251)" stroke-width="1.51"></path><path d="M1144,1358L2196,1354L1911,1331Z" fill="rgb(98,191,251)" stroke="rgb(98,191,251)" stroke-width="1.51"></path><path d="M319,1376L2196,1354L1144,1358Z" fill="rgb(101,184,247)" stroke="rgb(101,184,247)" stroke-width="1.51"></path><path d="M2154,-108L2177,-215L1972,-244Z" fill="rgb(120,197,251)" stroke="rgb(120,197,251)" stroke-width="1.51"></path><path d="M1972,-244L2177,-215L1808,-285Z" fill="rgb(120,197,251)" stroke="rgb(120,197,251)" stroke-width="1.51"></path><path d="M2198,495L2177,-215L2180,317Z" fill="rgb(93,186,250)" stroke="rgb(93,186,250)" stroke-width="1.51"></path>
</svg>
